<svg xmlns="http://www.w3.org/2000/svg" width="69.884" height="25.617" viewBox="0 0 69.884 25.617">
  <defs>
    <style>
      .cls-1 {
        fill: #fff;
      }
    </style>
  </defs>
  <g id="Grupo_334" data-name="Grupo 334" transform="translate(0.001)">
    <path id="Trazado_26" data-name="Trazado 26" class="cls-1" d="M732.988,5485.789l-1.347-3.275-1.336,3.275m32.3-1.3a1.839,1.839,0,0,1-.972.168h-2.386v-1.827h2.421a2.012,2.012,0,0,1,.928.151.751.751,0,0,1,.416.727A.84.84,0,0,1,762.606,5484.485Zm17.024,1.3-1.364-3.275-1.35,3.275Zm-31.735,3.545h-2.013l-.008-6.436-2.847,6.436H741.3l-2.857-6.44v6.44h-4l-.751-1.832h-4.087l-.766,1.832h-2.131l3.517-8.215h2.917l3.34,7.779v-7.779h3.208l2.569,5.575,2.363-5.575h3.269v8.215Zm8.025,0h-6.56v-8.215h6.56v1.708h-4.594v1.482h4.487v1.684h-4.487v1.644h4.594Zm9.255-6a2.315,2.315,0,0,1-1.386,2.19,2.238,2.238,0,0,1,.971.692,2.348,2.348,0,0,1,.328,1.507v1.613H763.1l-.006-1.036a2.458,2.458,0,0,0-.309-1.6c-.288-.291-.724-.353-1.432-.353h-2.11v2.988h-1.964v-8.215H761.8a4.615,4.615,0,0,1,2.38.392A1.918,1.918,0,0,1,765.175,5483.331Zm3.144,6h-2v-8.215h2Zm23.253,0h-2.783l-3.724-6.167v6.167h-4l-.764-1.832h-4.076l-.745,1.832h-2.3a3.474,3.474,0,0,1-3.9-4.043,4.391,4.391,0,0,1,1.056-3.217,4,4,0,0,1,2.982-.955h1.9v1.758h-1.857a1.905,1.905,0,0,0-1.517.488,2.7,2.7,0,0,0-.561,1.862,2.85,2.85,0,0,0,.535,1.93,1.9,1.9,0,0,0,1.373.423h.881l2.77-6.46h2.941l3.326,7.771v-7.771h2.994l3.452,5.722v-5.722h2.013v8.215Zm-64.883,1.616h3.354l.754-1.825h1.7l.754,1.825h6.6v-1.4l.593,1.4h3.425l.593-1.421v1.417h16.411l-.011-3h.319c.221.009.288.029.288.4v2.6h8.484v-.7a6.744,6.744,0,0,0,3.154.7h3.575l.757-1.825h1.694l.751,1.825h6.88v-1.735l1.042,1.735h5.515v-11.464h-5.456v1.354l-.767-1.354h-5.6v1.354l-.7-1.354h-7.57a6.792,6.792,0,0,0-3.278.673v-.673h-5.217v.673a3.241,3.241,0,0,0-2.216-.673h-19.07l-1.282,2.961-1.315-2.961h-6.007v1.354l-.66-1.354h-5.122l-2.377,5.454v6.011Z" transform="translate(-726.69 -5479.485)"/>
    <path id="Trazado_27" data-name="Trazado 27" class="cls-1" d="M791.839,5492.194h-3.578a1.331,1.331,0,0,0-.793.148.641.641,0,0,0-.29.592.623.623,0,0,0,.431.612,2.27,2.27,0,0,0,.756.093l1.063.028a3.12,3.12,0,0,1,2.234.663,1.088,1.088,0,0,1,.177.2m0,3.078a3.046,3.046,0,0,1-2.662,1.054h-3.795V5496.9h3.78a1.115,1.115,0,0,0,.793-.2.732.732,0,0,0,.235-.536.678.678,0,0,0-.243-.545.994.994,0,0,0-.695-.181c-1.844-.062-4.142.056-4.142-2.544,0-1.193.754-2.447,2.818-2.447h3.91v-1.635H788.2a4.072,4.072,0,0,0-2.455.67v-.67h-5.379a3.726,3.726,0,0,0-2.349.67v-.67h-9.6v.67a5.113,5.113,0,0,0-2.648-.67h-6.335v.67a4.479,4.479,0,0,0-2.77-.67h-7.088l-1.623,1.755-1.517-1.755h-10.59v11.467h10.39l1.671-1.783,1.576,1.783,6.4.008v-2.7h.63a6.7,6.7,0,0,0,2.736-.4v3.095h5.281v-2.987h.255c.325,0,.356.013.356.337v2.649H781.2a4.56,4.56,0,0,0,2.674-.732v.732h5.087a6.828,6.828,0,0,0,2.88-.528v-2.137Zm-7.832-3.282a2.287,2.287,0,0,1,.586,1.743c0,1.768-1.1,2.593-3.084,2.593h-3.825V5496.9h3.811a1.139,1.139,0,0,0,.8-.2.73.73,0,0,0,.232-.536.7.7,0,0,0-.237-.545,1.042,1.042,0,0,0-.7-.181c-1.835-.062-4.133.056-4.133-2.544,0-1.193.745-2.447,2.806-2.447H784.2v1.749h-3.6a1.345,1.345,0,0,0-.792.148.638.638,0,0,0-.293.592.629.629,0,0,0,.432.612,2.239,2.239,0,0,0,.761.094l1.062.027A3.17,3.17,0,0,1,784.006,5494.33Zm-17.725-.509a1.888,1.888,0,0,1-.974.169h-2.386v-1.846h2.422a1.951,1.951,0,0,1,.937.148.788.788,0,0,1,.406.741A.89.89,0,0,1,766.282,5493.821Zm1.186,1.024a2.132,2.132,0,0,1,.96.69,2.393,2.393,0,0,1,.329,1.5v1.631h-1.979v-1.029c0-.495.049-1.229-.312-1.61a1.912,1.912,0,0,0-1.443-.364h-2.1v3H760.95v-8.22h4.538a4.841,4.841,0,0,1,2.36.386,1.92,1.92,0,0,1,1.009,1.827A2.3,2.3,0,0,1,767.468,5494.845Zm2.478-4.4H776.5v1.7h-4.6v1.5h4.486v1.675H771.9v1.635l4.6.009v1.707h-6.555Zm-13.25,3.792h-2.537v-2.094h2.557c.711,0,1.2.291,1.2,1.008S757.45,5494.238,756.7,5494.238Zm-4.5,3.679-3.018-3.35,3.018-3.24Zm-7.79-.968h-4.828v-1.635h4.314v-1.675h-4.314v-1.5H744.5l2.152,2.4Zm15.617-3.8c0,2.284-1.7,2.754-3.416,2.754h-2.451v2.758h-3.821l-2.419-2.721-2.513,2.721h-7.781v-8.22h7.9l2.418,2.692,2.5-2.692h6.276C758.278,5490.445,760.025,5490.875,760.025,5493.152Z" transform="translate(-721.955 -5474.667)"/>
  </g>
</svg>
