<svg xmlns="http://www.w3.org/2000/svg" width="111.254" height="28.812" viewBox="0 0 111.254 28.812">
  <defs>
    <style>
      .cls-1 {
        fill: #fff;
      }
    </style>
  </defs>
  <g id="Grupo_335" data-name="Grupo 335" transform="translate(0)">
    <g id="Grupo_121" data-name="Grupo 121" transform="translate(0)">
      <path id="Trazado_28" data-name="Trazado 28" class="cls-1" d="M809.745,5491.657a8.372,8.372,0,0,0,5.367,7.8v-15.6A8.373,8.373,0,0,0,809.745,5491.657Z" transform="translate(-803.541 -5477.278)"/>
      <path id="Trazado_29" data-name="Trazado 29" class="cls-1" d="M815.654,5483.854v15.607a8.355,8.355,0,0,0,0-15.607Z" transform="translate(-798.1 -5477.278)"/>
      <path id="Trazado_30" data-name="Trazado 30" class="cls-1" d="M827.824,5480.431h-6.778a14.21,14.21,0,0,0-14.531,14.53,14.437,14.437,0,0,0,14.531,14.281h6.778c7.875.037,15.065-6.424,15.065-14.281C842.889,5486.368,835.7,5480.426,827.824,5480.431ZM821.078,5508a13.189,13.189,0,1,1,13.188-13.189A13.19,13.19,0,0,1,821.078,5508Z" transform="translate(-806.515 -5480.431)"/>
    </g>
    <path id="Trazado_31" data-name="Trazado 31" class="cls-1" d="M830.141,5494c0,1.167.834,1.3,1.575,1.3,3.275,0,4.349-2.469,4.349-4.727a4.553,4.553,0,0,0-4.742-4.88c-.622,0-.909.043-1.181.063Zm-1.487-7.109c0-1.362-.711-1.272-1.392-1.287v-.393c.591.028,1.2.028,1.788.028.638,0,1.5-.028,2.622-.028,3.924,0,6.06,2.62,6.06,5.3,0,1.5-.878,5.275-6.242,5.275-.772,0-1.485-.031-2.2-.031-.68,0-1.348.016-2.03.031v-.394c.908-.092,1.35-.123,1.392-1.152Z" transform="translate(-787.412 -5476.029)"/>
    <path id="Trazado_32" data-name="Trazado 32" class="cls-1" d="M834.611,5486.609a.743.743,0,1,1,0-1.486.743.743,0,0,1,.743.729.758.758,0,0,1-.743.758m-1.621,8.865h.288c.423,0,.726,0,.726-.5v-4.108c0-.664-.227-.758-.788-1.058v-.243c.713-.213,1.562-.5,1.621-.546a.546.546,0,0,1,.273-.076c.075,0,.108.091.108.213v5.818c0,.5.332.5.757.5h.258v.393c-.515,0-1.047-.029-1.59-.029s-1.091.014-1.652.029Z" transform="translate(-782.138 -5476.111)"/>
    <path id="Trazado_33" data-name="Trazado 33" class="cls-1" d="M835.906,5489.126c0-.56-.167-.711-.878-1v-.287a20.357,20.357,0,0,0,2-.73c.046,0,.09.034.09.154v.985a4.437,4.437,0,0,1,2.624-1.139c1.287,0,1.742.943,1.742,2.124v3.908c0,.5.332.5.757.5h.273v.392c-.53,0-1.06-.029-1.606-.029s-1.093.015-1.637.029v-.392h.273c.424,0,.726,0,.726-.5v-3.924c0-.864-.528-1.286-1.392-1.286a4.055,4.055,0,0,0-1.759.726v4.484c0,.5.334.5.759.5h.273v.392c-.53,0-1.062-.029-1.606-.029s-1.091.015-1.636.029v-.392h.273c.424,0,.726,0,.726-.5Z" transform="translate(-780.372 -5474.279)"/>
    <path id="Trazado_34" data-name="Trazado 34" class="cls-1" d="M842.731,5489.37c.378,0,.423-.2.423-.378a1.286,1.286,0,0,0-1.32-1.4c-.924,0-1.56.68-1.74,1.773Zm-2.683.487a3.756,3.756,0,0,0,0,.877,2.53,2.53,0,0,0,2.226,2.622,2.9,2.9,0,0,0,2.047-1.016l.211.213a3.556,3.556,0,0,1-2.8,1.712c-2.411,0-2.895-2.334-2.895-3.3,0-2.97,2-3.851,3.06-3.851a2.408,2.408,0,0,1,2.561,2.382,1.831,1.831,0,0,1-.014.272l-.136.093Z" transform="translate(-776.754 -5474.279)"/>
    <path id="Trazado_35" data-name="Trazado 35" class="cls-1" d="M841.944,5493.644h.409c.423,0,.726,0,.726-.5v-4.255c0-.471-.559-.561-.787-.684v-.226c1.106-.47,1.713-.867,1.852-.867.088,0,.135.046.135.2v1.364h.031c.378-.591,1.016-1.562,1.94-1.562a.826.826,0,0,1,.863.8.734.734,0,0,1-.711.774c-.472,0-.472-.363-1-.363a1.277,1.277,0,0,0-1.1,1.258v3.559c0,.5.3.5.726.5h.849v.392c-.833-.014-1.467-.029-2.121-.029-.622,0-1.258.015-1.8.029Z" transform="translate(-773.893 -5474.279)"/>
    <path id="Trazado_36" data-name="Trazado 36" class="cls-1" d="M845.112,5491.93a2,2,0,0,0,1.911,1.849,1.071,1.071,0,0,0,1.226-1.075c0-1.788-3.3-1.214-3.3-3.653a2.085,2.085,0,0,1,2.349-1.941,4.025,4.025,0,0,1,1.727.44l.108,1.547h-.35a1.556,1.556,0,0,0-1.652-1.5,1.066,1.066,0,0,0-1.181,1c0,1.773,3.515,1.229,3.515,3.607,0,1-.8,2.061-2.607,2.061a3.981,3.981,0,0,1-1.848-.515l-.167-1.742Z" transform="translate(-771.227 -5474.279)"/>
    <path id="Trazado_37" data-name="Trazado 37" class="cls-1" d="M858.908,5488.063h-.378c-.288-1.775-1.546-2.486-3.242-2.486-1.744,0-4.276,1.167-4.276,4.8,0,3.061,2.184,5.259,4.516,5.259a3.084,3.084,0,0,0,3.048-2.622l.348.091-.348,2.212a8.515,8.515,0,0,1-3.35.8,5.392,5.392,0,0,1-5.787-5.7,5.569,5.569,0,0,1,5.741-5.333,10.927,10.927,0,0,1,3.576.8Z" transform="translate(-766.992 -5476.141)"/>
    <path id="Trazado_38" data-name="Trazado 38" class="cls-1" d="M854.653,5495.875h.286c.426,0,.73,0,.73-.5v-8.437c0-.986-.227-1.017-.8-1.183v-.243a9.653,9.653,0,0,0,1.56-.653,1.621,1.621,0,0,1,.332-.168c.092,0,.123.093.123.214v10.47c0,.5.334.5.757.5h.258v.392c-.513,0-1.045-.029-1.591-.029s-1.091.015-1.652.029Z" transform="translate(-762.191 -5476.51)"/>
    <path id="Trazado_39" data-name="Trazado 39" class="cls-1" d="M862.827,5493.094c0,.271.167.288.424.288.182,0,.409-.017.607-.017v.32a15.4,15.4,0,0,0-2.184.469l-.077-.044v-1.227a4.086,4.086,0,0,1-2.682,1.271,1.634,1.634,0,0,1-1.667-1.8v-3.879c0-.395-.059-.774-.907-.849v-.288c.546-.016,1.756-.106,1.954-.106.167,0,.167.106.167.44v3.909c0,.455,0,1.758,1.318,1.758a3.38,3.38,0,0,0,1.833-.926v-4.077c0-.3-.726-.468-1.27-.62v-.274c1.362-.089,2.211-.21,2.363-.21.121,0,.121.106.121.273Z" transform="translate(-760.635 -5474.17)"/>
    <path id="Trazado_40" data-name="Trazado 40" class="cls-1" d="M862.254,5494.554a1.63,1.63,0,0,0,1.562,1.546c1.621,0,2.3-1.592,2.3-2.94a2.89,2.89,0,0,0-2.424-3,2.324,2.324,0,0,0-1.441.713Zm0-4.122a3.826,3.826,0,0,1,2.257-1.092,2.953,2.953,0,0,1,2.82,3.184,3.829,3.829,0,0,1-3.623,3.971,4.455,4.455,0,0,1-2.107-.531l-.453.348-.317-.166a17.922,17.922,0,0,0,.211-2.7v-6.515c0-.986-.229-1.017-.8-1.183v-.243a9.519,9.519,0,0,0,1.56-.653,1.612,1.612,0,0,1,.334-.168c.092,0,.121.093.121.214Z" transform="translate(-757.047 -5476.51)"/>
    <path id="Trazado_41" data-name="Trazado 41" class="cls-1" d="M864.24,5487.162h.115c.125,0,.184-.1.184-.25s-.09-.209-.19-.209h-.11Zm-.33.514v-.047c.121-.019.142-.013.142-.088v-.722c0-.1-.01-.136-.138-.131v-.049h.5c.171,0,.33.081.33.259a.307.307,0,0,1-.233.294l.162.226a1.039,1.039,0,0,0,.215.228v.032h-.19c-.092,0-.171-.191-.351-.448h-.108v.325c0,.063.021.058.142.076v.047Zm.486.278a.8.8,0,1,0-.774-.792.789.789,0,0,0,.774.792m0-1.771a.977.977,0,1,1-.977.979.96.96,0,0,1,.977-.979" transform="translate(-754.12 -5475.135)"/>
  </g>
</svg>
