<svg xmlns="http://www.w3.org/2000/svg" width="55.088" height="42.85" viewBox="0 0 55.088 42.85">
  <defs>
    <style>
      .cls-1 {
        fill: #fff;
      }
    </style>
  </defs>
  <path id="Trazado_6480" data-name="Trazado 6480" class="cls-1" d="M657.7,5516.069v-2.836a1.682,1.682,0,0,0-1.777-1.8,1.753,1.753,0,0,0-1.589.8,1.66,1.66,0,0,0-1.494-.8,1.494,1.494,0,0,0-1.322.671v-.557h-.985v4.519h.994v-2.505a1.057,1.057,0,0,1,1.106-1.2c.653,0,.983.426.983,1.192v2.515h.992v-2.505a1.067,1.067,0,0,1,1.108-1.2c.671,0,.992.426.992,1.192v2.515Zm14.7-4.519h-1.608v-1.372h-.992v1.372h-.917v.9h.917v2.062c0,1.049.406,1.673,1.57,1.673a2.318,2.318,0,0,0,1.229-.35l-.284-.843a1.809,1.809,0,0,1-.869.256c-.492,0-.653-.3-.653-.757v-2.042h1.608Zm8.387-.114a1.333,1.333,0,0,0-1.191.661v-.547h-.974v4.519h.983v-2.534c0-.747.321-1.163.966-1.163a1.616,1.616,0,0,1,.615.112l.3-.927a2.11,2.11,0,0,0-.7-.123Zm-12.68.473a3.38,3.38,0,0,0-1.844-.473c-1.145,0-1.882.549-1.882,1.446,0,.738.549,1.193,1.561,1.334l.463.065c.539.075.794.217.794.474,0,.35-.36.547-1.031.547a2.407,2.407,0,0,1-1.5-.472l-.464.766a3.267,3.267,0,0,0,1.958.586c1.3,0,2.062-.615,2.062-1.475,0-.8-.6-1.211-1.58-1.353l-.464-.066c-.425-.057-.766-.143-.766-.445,0-.331.321-.53.861-.53a2.928,2.928,0,0,1,1.41.387Zm26.344-.473a1.337,1.337,0,0,0-1.192.661v-.547h-.973v4.519h.983v-2.534c0-.747.321-1.163.964-1.163a1.615,1.615,0,0,1,.615.112l.3-.927a2.1,2.1,0,0,0-.7-.123Zm-12.671,2.374a2.284,2.284,0,0,0,2.411,2.374,2.366,2.366,0,0,0,1.626-.539l-.472-.795a1.991,1.991,0,0,1-1.182.406,1.449,1.449,0,0,1,0-2.893,1.986,1.986,0,0,1,1.182.407l.472-.8a2.371,2.371,0,0,0-1.626-.539,2.283,2.283,0,0,0-2.411,2.374Zm9.21,0v-2.259H690v.547a1.717,1.717,0,0,0-1.428-.661,2.377,2.377,0,0,0,0,4.748,1.718,1.718,0,0,0,1.428-.662v.548h.983Zm-3.659,0a1.368,1.368,0,1,1,1.371,1.446,1.356,1.356,0,0,1-1.371-1.446Zm-11.867-2.374a2.376,2.376,0,0,0,.065,4.748,2.751,2.751,0,0,0,1.854-.634l-.483-.728a2.149,2.149,0,0,1-1.314.474,1.257,1.257,0,0,1-1.354-1.107h3.357c.01-.122.019-.246.019-.378a2.167,2.167,0,0,0-2.146-2.374Zm-.019.879a1.121,1.121,0,0,1,1.143,1.1h-2.344a1.163,1.163,0,0,1,1.2-1.1Zm24.67,1.494v-4.076h-.983v2.363a1.715,1.715,0,0,0-1.428-.661,2.377,2.377,0,0,0,0,4.748,1.716,1.716,0,0,0,1.428-.662v.548h.983Zm-3.659,0a1.369,1.369,0,1,1,1.371,1.446,1.357,1.357,0,0,1-1.371-1.446Zm-33.209,0v-2.259h-.983v.547a1.717,1.717,0,0,0-1.428-.661,2.377,2.377,0,0,0,0,4.748,1.718,1.718,0,0,0,1.428-.662v.548h.983Zm-3.659,0a1.368,1.368,0,1,1,1.371,1.446A1.356,1.356,0,0,1,659.58,5513.809Zm42.167,1.6a.439.439,0,0,1,.178.035.455.455,0,0,1,.147.1.442.442,0,0,1,.133.318.432.432,0,0,1-.036.174.463.463,0,0,1-.1.142.48.48,0,0,1-.147.1.424.424,0,0,1-.178.037.443.443,0,0,1-.181-.037.457.457,0,0,1-.145-.1.465.465,0,0,1-.1-.142.432.432,0,0,1-.036-.174.442.442,0,0,1,.133-.318.434.434,0,0,1,.145-.1A.458.458,0,0,1,701.746,5515.414Zm0,.8a.348.348,0,0,0,.136-.028.355.355,0,0,0,.212-.322.357.357,0,0,0-.1-.249.358.358,0,0,0-.246-.1.362.362,0,0,0-.138.029.34.34,0,0,0-.111.073.342.342,0,0,0-.1.249.342.342,0,0,0,.1.247.316.316,0,0,0,.111.075A.361.361,0,0,0,701.746,5516.214Zm.027-.561a.193.193,0,0,1,.124.036.12.12,0,0,1,.043.1.118.118,0,0,1-.034.086.169.169,0,0,1-.1.041l.136.157h-.107l-.126-.157h-.042v.157h-.089v-.417Zm-.1.079v.111h.1a.1.1,0,0,0,.056-.014.052.052,0,0,0,0-.085.1.1,0,0,0-.056-.013Zm-27.957-11.408c.132.116.272.227.412.341a17.024,17.024,0,1,1,0-28.356c-.138.113-.277.224-.41.342a18.325,18.325,0,0,0,0,27.673Zm12.028-30.86a16.937,16.937,0,0,0-9.423,2.845c.138.113.278.224.412.342a18.325,18.325,0,0,1,0,27.673c-.133.116-.274.227-.412.341a17.024,17.024,0,1,0,9.423-31.2Zm-10.521,3.647q-.329.257-.644.533a17.009,17.009,0,0,0,0,25.686c.21.184.425.36.644.534.219-.174.434-.35.644-.534a17.006,17.006,0,0,0,0-25.686q-.315-.275-.644-.533" transform="translate(-647.676 -5473.463)"/>
</svg>
