<svg xmlns="http://www.w3.org/2000/svg" width="63.007" height="20.401" viewBox="0 0 63.007 20.401">
  <defs>
    <style>
      .cls-1 {
        fill: #fff;
      }
    </style>
  </defs>
  <g id="Grupo_522" data-name="Grupo 522" transform="translate(-60 -4611.141)">
    <g id="Grupo_333" data-name="Grupo 333" transform="translate(60 4611.141)">
      <path id="Trazado_21" data-name="Trazado 21" class="cls-1" d="M579.121,5481.8l-5,13.472-.533-2.737a15.759,15.759,0,0,0-7.066-8.25l4.565,17.252h5.4l8.031-19.737h-5.4" transform="translate(-561.22 -5481.443)"/>
      <path id="Trazado_22" data-name="Trazado 22" class="cls-1" d="M577.032,5501.556l3.191-19.762h5.106l-3.194,19.762h-5.1" transform="translate(-554.852 -5481.449)"/>
      <path id="Trazado_23" data-name="Trazado 23" class="cls-1" d="M597.508,5482.415a12.49,12.49,0,0,0-4.57-.834c-5.049,0-8.6,2.681-8.627,6.517-.032,2.848,2.536,4.428,4.47,5.375,1.987.969,2.655,1.589,2.647,2.454-.018,1.318-1.592,1.921-3.057,1.921a10.144,10.144,0,0,1-4.8-1.035l-.663-.311-.713,4.42a15.312,15.312,0,0,0,5.689,1.059c5.355,0,8.838-2.653,8.879-6.755.024-2.252-1.34-3.959-4.29-5.371-1.777-.913-2.88-1.521-2.862-2.45,0-.819.925-1.7,2.928-1.7a8.812,8.812,0,0,1,3.817.757l.456.229.692-4.282" transform="translate(-551.719 -5481.58)"/>
      <path id="Trazado_24" data-name="Trazado 24" class="cls-1" d="M605.232,5481.806h-3.94a2.539,2.539,0,0,0-2.679,1.64l-7.573,18.105H596.4s.877-2.431,1.071-2.968c.589,0,5.789.011,6.531.011.159.691.627,2.957.627,2.957h4.737l-4.134-19.746m-6.288,12.736c.426-1.134,2.035-5.521,2.035-5.521-.034.054.413-1.146.676-1.887l.339,1.709s.981,4.712,1.184,5.7Z" transform="translate(-546.36 -5481.442)"/>
      <path id="Trazado_25" data-name="Trazado 25" class="cls-1" d="M571.5,5481.8h-8.23l-.045.341c6.394,1.633,10.617,5.657,12.373,10.407l-1.786-9.08A2.142,2.142,0,0,0,571.5,5481.8Z" transform="translate(-563.223 -5481.445)"/>
    </g>
  </g>
</svg>
